<svg xmlns="http://www.w3.org/2000/svg" viewBox="0 0 1440 900"><rect width="1440" height="900" fill="#fafaf9"/><rect width="244" height="900" fill="#fff"/><path d="M244 0v900M1120 0v900" stroke="#e2e2de"/><rect x="1120" width="320" height="900" fill="#f7f7f5"/><text x="288" y="64" font-family="Arial" font-size="11" font-weight="700" fill="#70706c">CONVERSATION WORKFLOW</text><text x="288" y="102" font-family="Arial" font-size="30" font-weight="700">Inline decisions and review</text><g fill="#fff" stroke="#e2e2de"><rect x="288" y="155" width="788" height="190" rx="16"/><rect x="288" y="365" width="788" height="175" rx="16"/><rect x="288" y="560" width="788" height="175" rx="16"/></g><g font-family="Arial"><text x="310" y="184" font-size="10" font-weight="700" fill="#70706c">ASK USER</text><text x="310" y="216" font-size="16" font-weight="700">Which outcome matters most for Wilson this week?</text><text x="310" y="394" font-size="10" font-weight="700" fill="#70706c">PREFLIGHT FEEDBACK · GITHUB · MEDIUM RISK</text><text x="310" y="426" font-size="16" font-weight="700">Publish product-shell branch</text><text x="310" y="589" font-size="10" font-weight="700" fill="#70706c">KNOWLEDGE REVIEW · WILSON · PROPOSAL WORKFLOW</text><text x="310" y="621" font-size="16" font-weight="700">Dealer retail quote maps to Sell</text><text x="1144" y="36" font-size="10" font-weight="700" fill="#70706c">ARTIFACT</text><text x="1144" y="66" font-size="17" font-weight="700">Wilson rollout brief</text><text x="1144" y="98" font-size="13" fill="#70706c">Draft artifact attached to</text><text x="1144" y="118" font-size="13" fill="#70706c">this conversation.</text></g><rect x="1144" y="150" width="272" height="120" rx="12" fill="#fff" stroke="#e2e2de"/><text x="1162" y="178" font-family="Arial" font-size="13">Three decisions, rollout risks,</text><text x="1162" y="202" font-family="Arial" font-size="13">and the next-step close live here</text><text x="1162" y="226" font-family="Arial" font-size="13">instead of inside tool JSON.</text></svg>